<svg width="21" height="21" viewBox="0 0 21 21" fill="none" xmlns="http://www.w3.org/2000/svg">
<mask id="mask0_47_2957" style="mask-type:luminance" maskUnits="userSpaceOnUse" x="1" y="1" width="19" height="20">
<path d="M19.9737 1.71289H1.02637V20.6603H19.9737V1.71289Z" fill="white"/>
</mask>
<g mask="url(#mask0_47_2957)">
<mask id="mask1_47_2957" style="mask-type:luminance" maskUnits="userSpaceOnUse" x="1" y="1" width="19" height="20">
<path d="M19.9737 1.71289H1.02637V20.6602H19.9737V1.71289Z" fill="white"/>
</mask>
<g mask="url(#mask1_47_2957)">
<path d="M5.47586 6.16312C4.19006 7.44892 3.39478 9.22523 3.39478 11.1873C3.39478 15.1115 6.57591 18.2925 10.5 18.2925C12.4621 18.2925 14.2385 17.4972 15.5242 16.2115M5.47586 6.16312C6.76166 4.87732 8.53798 4.08203 10.5 4.08203C14.4242 4.08203 17.6053 7.26317 17.6053 11.1873C17.6053 13.1493 16.81 14.9257 15.5242 16.2115M5.47586 6.16312L15.5242 16.2115L5.47586 6.16312Z" fill="#21222D"/>
<path d="M5.47586 6.16312C4.19006 7.44892 3.39478 9.22523 3.39478 11.1873C3.39478 15.1115 6.57591 18.2925 10.5 18.2925C12.4621 18.2925 14.2385 17.4972 15.5242 16.2115M5.47586 6.16312C6.76166 4.87732 8.53798 4.08203 10.5 4.08203C14.4242 4.08203 17.6053 7.26317 17.6053 11.1873C17.6053 13.1493 16.81 14.9257 15.5242 16.2115M5.47586 6.16312L15.5242 16.2115" stroke="#DC3545" strokeWidth="2.10526" strokeLinecap="round" strokeLinejoin="round"/>
</g>
</g>
</svg>
